<?xml version="1.0" standalone="no"?><!DOCTYPE svg PUBLIC "-//W3C//DTD SVG 1.1//EN" "http://www.w3.org/Graphics/SVG/1.1/DTD/svg11.dtd"><svg t="1733386285417" class="icon" viewBox="0 0 1024 1024" version="1.1" xmlns="http://www.w3.org/2000/svg" p-id="8840" xmlns:xlink="http://www.w3.org/1999/xlink" width="256" height="256"><path d="M576.8 499.2c6.4 48-51.2 86.4-92.8 60.8-44.8-19.2-44.8-92.8 0-112 35.2-22.4 92.8 6.4 92.8 51.2z m60.8-12.8c-9.6-80-102.4-134.4-176-102.4-48 22.4-80 70.4-76.8 124.8 3.2 70.4 70.4 128 137.6 121.6s124.8-73.6 115.2-144z m137.6-307.2c-25.6-32-67.2-38.4-105.6-44.8-105.6-16-217.6-19.2-323.2 0-35.2 6.4-76.8 12.8-99.2 44.8 38.4 32 89.6 38.4 137.6 44.8 83.2 9.6 172.8 12.8 256 0 48-6.4 99.2-9.6 134.4-44.8z m32 592c-16 57.6-6.4 131.2-67.2 163.2-102.4 57.6-227.2 64-339.2 41.6-60.8-9.6-128-28.8-163.2-86.4-12.8-54.4-22.4-112-32-166.4l3.2-9.6 9.6-6.4c169.6 112 409.6 112 579.2 0 32 9.6 9.6 41.6 9.6 64z m105.6-550.4c-19.2 124.8-41.6 249.6-64 374.4-6.4 35.2-41.6 57.6-70.4 73.6-105.6 54.4-230.4 64-348.8 51.2-80-9.6-160-28.8-224-80-28.8-22.4-28.8-64-35.2-96C148 422.4 122.4 307.2 109.6 188.8c6.4-51.2 64-73.6 108.8-89.6C276 76.8 336.8 67.2 397.6 64c128-12.8 262.4-9.6 387.2 28.8 44.8 12.8 92.8 32 121.6 70.4 12.8 16 6.4 38.4 6.4 57.6z" p-id="8841"></path></svg>