<?xml version="1.0" standalone="no"?><!DOCTYPE svg PUBLIC "-//W3C//DTD SVG 1.1//EN" "http://www.w3.org/Graphics/SVG/1.1/DTD/svg11.dtd"><svg t="1709867297081" class="icon" viewBox="0 0 1024 1024" version="1.1" xmlns="http://www.w3.org/2000/svg" p-id="16368" xmlns:xlink="http://www.w3.org/1999/xlink" width="200" height="200"><path d="M652.8 40.96l235.52 235.52v647.68a58.88 58.88 0 0 1-58.88 58.88H181.76a58.88 58.88 0 0 1-58.88-58.88V99.84A58.88 58.88 0 0 1 181.76 40.96h471.04zM332.231111 473.998222c-14.336 0-27.060148 1.573926-38.134518 4.721778a60.928 60.928 0 0 0-27.818667 16.346074c-7.452444 7.736889-13.141333 18.204444-17.066667 31.383704-3.90637 13.198222-5.878519 29.828741-5.878518 49.891555 0 20.271407 1.972148 36.977778 5.878518 50.176 3.925333 13.198222 9.614222 23.665778 17.066667 31.402667 7.452444 7.736889 16.725333 13.141333 27.818667 16.19437 11.07437 3.072 23.798519 4.589037 38.115555 4.589037 14.354963 0 27.022222-1.517037 38.001778-4.589037a60.833185 60.833185 0 0 0 27.818667-16.19437c7.547259-7.736889 13.236148-18.204444 17.066666-31.402667 3.811556-13.179259 5.726815-29.904593 5.726815-50.176 0-20.062815-1.915259-36.693333-5.745778-49.872592-3.811556-13.198222-9.500444-23.665778-17.066666-31.402667a61.933037 61.933037 0 0 0-27.799704-16.346074c-10.998519-3.147852-23.646815-4.740741-37.982815-4.740741z m248.301037 2.844445h-117.854815V675.84h37.56563v-81.142519h74.543407v-32.692148h-74.524444V509.534815h80.270222v-32.673185z m100.067556 0h-64.512V675.84h64.512c14.52563 0 27.704889-1.573926 39.55674-4.740741a71.850667 71.850667 0 0 0 30.39763-16.19437c8.400593-7.642074 14.961778-17.825185 19.64563-30.53037 4.683852-12.705185 7.016296-28.728889 7.016296-48.033186 0-20.631704-2.332444-37.451852-7.016296-50.441481-4.683852-13.008593-11.245037-23.134815-19.64563-30.39763a67.621926 67.621926 0 0 0-30.39763-14.791111 178.119111 178.119111 0 0 0-32.426666-3.754667l-7.130074-0.094814zM332.231111 504.964741c10.126222 0 18.394074 1.34637 24.803556 4.020148 6.390519 2.673778 11.415704 6.883556 15.037629 12.61037 3.640889 5.745778 6.125037 13.141333 7.471408 22.224593 1.327407 9.083259 1.991111 19.930074 1.991111 32.540444 0 13.008593-0.663704 23.988148-1.991111 32.995556-1.34637 8.969481-3.830519 16.232296-7.471408 21.769481a31.668148 31.668148 0 0 1-15.037629 12.193186c-6.409481 2.578963-14.677333 3.868444-24.803556 3.868444s-18.450963-1.289481-24.955259-3.868444a31.573333 31.573333 0 0 1-15.189333-12.193186c-3.640889-5.537185-6.125037-12.8-7.452445-21.788444a228.769185 228.769185 0 0 1-2.010074-32.976593c0-12.61037 0.663704-23.457185 2.010074-32.540444 1.327407-9.083259 3.811556-16.497778 7.452445-22.224593a31.857778 31.857778 0 0 1 15.189333-12.61037c6.504296-2.673778 14.829037-4.020148 24.955259-4.020148z m346.642963 3.735703c9.367704 0 17.73037 0.910222 25.088 2.730667 7.35763 1.801481 13.615407 5.252741 18.773333 10.315852s9.083259 12.003556 11.757037 20.783407c2.673778 8.798815 4.020148 20.081778 4.020149 33.829926 0 13.198222-1.289481 24.082963-3.868445 32.692148-2.578963 8.609185-6.409481 15.435852-11.472592 20.498963a42.230519 42.230519 0 0 1-18.773334 10.752c-7.471407 2.104889-15.966815 3.147852-25.524148 3.147852h-25.220741v-134.750815h25.220741z" fill="#7032FA" p-id="16369"></path><path d="M652.8 40.96l235.52 235.52H711.68a58.88 58.88 0 0 1-58.88-58.88V40.96z" fill="#ffffff" p-id="16370" data-spm-anchor-id="a313x.search_index.0.i4.68643a81Yz9kLD" class="selected"></path></svg>