<?xml version="1.0" standalone="no"?><!DOCTYPE svg PUBLIC "-//W3C//DTD SVG 1.1//EN" "http://www.w3.org/Graphics/SVG/1.1/DTD/svg11.dtd"><svg t="1709859862258" class="icon" viewBox="0 0 1024 1024" version="1.1" xmlns="http://www.w3.org/2000/svg" p-id="12464" xmlns:xlink="http://www.w3.org/1999/xlink" width="200" height="200"><path d="M149.76 0C104.96 0 66.56 35.2 66.56 80V940.8c0 48 38.4 83.2 83.2 83.2h732.8c44.8 0 80-35.2 80-80V323.2L658.56 0H149.76z" fill="#9D75E2" p-id="12465"></path><path d="M962.56 326.4v16h-204.8s-99.2-19.2-96-105.6c0 0 3.2 89.6 96 89.6h204.8z" fill="#2F0D6B" p-id="12466"></path><path d="M358.83008 668.5184l1.2288 0.03584c3.31264 0.2048 6.1696 1.21856 8.4736 3.06176 2.70336 2.16576 4.03968 5.25824 4.03968 9.09824 0 4.30592-1.58208 7.5264-4.82816 9.33376a18.14528 18.14528 0 0 1-7.74144 2.28864l-1.17248 0.03584h-43.60192v152.192l-0.03072 1.2032c-0.17408 3.4304-1.08544 6.17472-2.82624 8.18688-2.10944 2.44224-5.7856 3.54304-10.88512 3.54304-5.12 0-8.81664-1.16224-10.92608-3.72224-1.6896-2.05824-2.60096-4.74624-2.78016-8.0128l-0.03584-1.2544v-152.1408l-43.66848 0.00512-1.18784-0.0256c-3.39968-0.16384-6.2464-1.00864-8.46848-2.58048-2.73408-1.92512-4.0192-5.10464-4.0192-9.3184 0-4.0448 1.35168-7.17824 4.1472-9.17504 2.29376-1.6384 5.09952-2.53952 8.35072-2.71872l1.24416-0.03584h114.688zM428.2368 665.6c4.3776 0 7.82336 0.90112 10.26048 2.816 2.35008 1.85344 3.5584 4.67968 3.74272 8.35584l0.0256 1.024v167.30112l-0.0256 0.91136c-0.384 7.47008-5.37088 11.48928-14.0032 11.48928-8.33024 0-13.0816-3.9936-13.43488-11.29984l-0.02048-0.89088V677.7344l0.0256-0.89088c0.36864-7.296 5.15072-11.24864 13.42976-11.24864z m182.3744 2.9184l1.1264 0.02048c8.66304 0.31232 13.47584 4.48 13.47584 11.90912 0 4.23424-1.30048 7.38816-4.08064 9.22624-2.26304 1.50016-5.40672 2.27328-9.43104 2.41152l-1.37728 0.0256H532.8896v54.98368l69.74464 0.00512 1.1776 0.02048c6.4256 0.24576 10.68544 2.54976 11.99616 6.67648 1.28 2.60096 1.152 5.49888-0.128 8.17152-1.36704 5.28896-5.60128 8.16128-12.0576 8.43264l-1.03936 0.02048H532.8896v75.21792l-0.03584 1.05472c-0.2048 3.072-1.28 5.61664-3.24608 7.54176-2.29376 2.24256-6.00064 3.26144-11.0336 3.26144-4.88448 0-8.448-1.04448-10.55744-3.36384-1.7408-1.91488-2.67264-4.4032-2.86208-7.41376l-0.03584-1.152v-163.3024l0.02048-1.12128c0.16896-4.41856 1.3312-7.6544 3.69664-9.6256 2.29376-1.90976 5.888-2.84672 10.78272-2.97984l1.24928-0.02048h89.74336z m165.74464 0l1.1264 0.02048c8.66304 0.31232 13.47584 4.48 13.47584 11.90912 0 4.23424-1.30048 7.38816-4.08064 9.22624-2.26304 1.50016-5.40672 2.27328-9.43104 2.41152l-1.37728 0.0256h-77.43488v54.98368l69.74464 0.00512 1.1776 0.02048c6.4256 0.24576 10.68544 2.54976 12.00128 6.67648 1.27488 2.60096 1.14688 5.49888-0.128 8.17152-1.37216 5.28896-5.6064 8.16128-12.06272 8.43264l-1.03936 0.02048h-69.69344v75.21792l-0.03584 1.05472c-0.2048 3.072-1.28 5.61664-3.24608 7.54176-2.29376 2.24256-6.00064 3.26144-11.0336 3.26144-4.88448 0-8.448-1.04448-10.55744-3.36384-1.7408-1.91488-2.67264-4.4032-2.86208-7.41376l-0.03584-1.152v-163.3024l0.0256-1.12128c0.16384-4.41856 1.32608-7.6544 3.69152-9.6256 2.29376-1.90976 5.888-2.84672 10.78272-2.97984l1.24928-0.02048h89.74336zM658.56 0L962.56 326.4h-208c-80 0-96-64-96-92.8V0z" fill="#FFFFFF" p-id="12467"></path></svg>