<?xml version="1.0" standalone="no"?><!DOCTYPE svg PUBLIC "-//W3C//DTD SVG 1.1//EN" "http://www.w3.org/Graphics/SVG/1.1/DTD/svg11.dtd"><svg t="1710146945648" class="icon" viewBox="0 0 1024 1024" version="1.1" xmlns="http://www.w3.org/2000/svg" p-id="4308" xmlns:xlink="http://www.w3.org/1999/xlink" width="200" height="200"><path d="M149.76 0C104.96 0 66.56 35.2 66.56 80v864C66.56 988.8 104.96 1024 149.76 1024h732.8c44.8 0 80-35.2 80-80V323.2L658.56 0H149.76z" fill="#FC7B24" p-id="4309"></path><path d="M962.56 326.4v16h-204.8s-99.2-19.2-99.2-108.8c0 0 3.2 92.8 96 92.8H962.56z" fill="#FB5C1B" p-id="4310"></path><path d="M248.36608 648.8064c3.00032 0.128 5.84192 2.0992 8.72448 5.7344l0.7168 0.9472 47.79008 68.11136 45.7216-65.42848 0.64512-1.01888c2.82112-4.3008 5.89824-6.89152 9.33376-7.5776 3.56352-0.7168 7.1168 0.11264 10.54208 2.39616 6.32832 4.3008 7.2704 10.58816 2.944 17.8688l-0.5632 0.9216-52.87424 75.36128 62.83776 89.51808 0.65024 1.3824c1.07008 2.41152 1.7408 4.74624 2.01216 6.99904 0.41984 3.49696-1.56672 6.64064-5.55008 9.45152-7.39328 5.00224-14.1312 3.92192-19.03104-2.97984l-0.55296-0.82432-56.40192-80.44544-56.43264 80.50688-0.73728 0.98816c-2.47296 3.13856-5.30432 5.04832-8.47872 5.59616-3.20512 0.55296-6.34368-0.24576-9.216-2.2272l-0.84992-0.62976c-3.16416-2.19136-4.85376-5.43744-4.9664-9.48224-0.1024-3.49184 0.8704-6.66624 2.7904-9.2928l0.67584-0.85504 61.19424-87.41888-52.83328-75.59168-0.60416-0.81408c-1.67424-2.4576-2.39616-5.41184-2.19136-8.7552a11.42784 11.42784 0 0 1 5.43744-9.28768c3.2768-2.18624 6.36416-3.2768 9.2672-3.15392z m340.10624 0.43008c5.21216 0 9.69728 1.664 13.33248 4.9664 3.34848 3.0464 5.57056 7.4752 6.7072 13.23008l0.26624 1.46432 25.81504 168.38656 0.18944 1.54112c0.37376 3.72736 0.1536 7.21408-0.68096 10.4448-1.19296 4.6336-5.34016 6.99392-11.79648 7.22432-4.18304 0-7.424-1.31072-9.49248-4.0192-1.66912-2.19136-2.8672-5.49376-3.69664-9.984l-0.24064-1.3824-16.62464-114.36544-2.1504-13.4656a137.84576 137.84576 0 0 0-2.81088-13.64992 35.2 35.2 0 0 0-1.1264-3.54304l-0.2816-0.68096-0.20992-0.4608-0.34816 0.9728-0.16384 0.50176-42.96192 147.88096-0.34304 1.21344c-0.99328 3.35872-2.23232 5.9136-3.7888 7.68-1.97632 2.23744-4.92032 3.3024-8.65792 3.3024-3.8912 0-6.85056-0.9216-8.7552-2.96448-1.5104-1.61792-2.78528-4.2496-3.93216-7.92576l-0.37888-1.26976a9728.4608 9728.4608 0 0 0-21.92384-73.37984 3444.64384 3444.64384 0 0 1-21.37088-73.42592 27.1104 27.1104 0 0 0-1.28512-3.61472l-0.26624-0.53248-0.1024 0.28672a18.59072 18.59072 0 0 0-0.50688 1.90976l-0.1536 0.768-0.1536 0.83968-21.43232 144.83456c-0.6656 4.0448-1.8176 7.30624-3.49696 9.76896-2.16576 3.19488-5.98016 4.70528-11.14624 4.70528-8.78592 0-12.544-5.95456-11.02848-16.17408l0.18432-1.11104 26.3168-172.04736c0.95232-5.53984 2.9696-9.86112 6.11328-12.9024 3.46112-3.3536 7.97696-5.02272 13.39392-5.02272 5.3248 0 9.856 1.41824 13.48096 4.2752 3.3536 2.64192 5.98016 6.9632 7.9872 12.96896l0.49152 1.536 38.2208 134.85056 37.4272-135.168 0.42496-1.41824c1.83296-5.8368 4.39296-10.112 7.76192-12.76928 3.61984-2.85184 8.05376-4.2752 13.19424-4.2752z m98.5088 0c8.66816 0 13.63968 4.28544 14.00832 12.20096l0.02048 0.96768v165.74464h61.45024l1.13664 0.03584c3.2768 0.18944 6.06208 1.17248 8.28928 2.9696 2.67264 2.16576 3.95776 5.5296 3.95776 9.87648 0 4.18304-1.36704 7.4752-4.1472 9.6256-2.28352 1.76128-5.0176 2.7392-8.12544 2.93376l-1.18272 0.03584h-71.74144l-1.34144-0.03584c-4.74624-0.2304-8.58624-1.6896-11.41248-4.4032-2.84672-2.74432-4.38272-6.3488-4.62336-10.68544l-0.03072-1.19808V662.3232l0.03584-1.09056c0.2304-3.60448 1.56672-6.54336 4.00384-8.6528 2.59072-2.23232 5.8624-3.34336 9.7024-3.34336zM658.56 0L962.56 326.4h-208c-80 0-96-67.2-96-92.8V0z" fill="#FFFFFF" p-id="4311"></path></svg>